<?xml version="1.0" encoding="utf-8"?>
<!-- Generator: Adobe Illustrator 16.0.0, SVG Export Plug-In . SVG Version: 6.00 Build 0)  -->
<!DOCTYPE svg PUBLIC "-//W3C//DTD SVG 1.1//EN" "http://www.w3.org/Graphics/SVG/1.1/DTD/svg11.dtd">
<svg version="1.1" id="Layer_1" xmlns="http://www.w3.org/2000/svg" xmlns:xlink="http://www.w3.org/1999/xlink" x="0px" y="0px"
	 width="50px" height="50px" viewBox="0 0 50 50" enable-background="new 0 0 50 50" xml:space="preserve">
<g>
	<path d="M16.574,20.451L9.116,34.532h2.263l6.079-11.478l6.083,11.478h2.262l0.002-0.001L18.342,20.45
		C17.994,19.796,16.922,19.797,16.574,20.451z"/>
	<path d="M30.288,14.532C30.114,14.205,29.774,14,29.404,14s-0.71,0.205-0.884,0.532L22.43,26.027l1.131,2.136l5.844-11.027
		l9.217,17.396h2.263L30.288,14.532z"/>
	<rect x="27.177" y="32.792" width="1.74" height="1.74"/>
	<rect x="27.177" y="30.052" width="1.74" height="1.74"/>
	<rect x="29.917" y="30.052" width="1.74" height="1.74"/>
	<rect x="29.917" y="32.792" width="1.74" height="1.74"/>
	<rect x="15.221" y="32.792" width="1.74" height="1.74"/>
	<rect x="15.221" y="30.052" width="1.74" height="1.74"/>
	<rect x="17.961" y="30.052" width="1.74" height="1.74"/>
	<rect x="17.961" y="32.792" width="1.74" height="1.74"/>
</g>
<g id="Ribbon_6">
	<g id="Regal_Vector_Pack_02">
	</g>
</g>
</svg>
