<?xml version="1.0" encoding="utf-8"?>
<!-- Generator: Adobe Illustrator 16.0.4, SVG Export Plug-In . SVG Version: 6.00 Build 0)  -->
<!DOCTYPE svg PUBLIC "-//W3C//DTD SVG 1.1//EN" "http://www.w3.org/Graphics/SVG/1.1/DTD/svg11.dtd">
<svg version="1.1" id="Layer_1" xmlns="http://www.w3.org/2000/svg" xmlns:xlink="http://www.w3.org/1999/xlink" x="0px" y="0px"
	 width="72.818px" height="72.814px" viewBox="0 0 72.818 72.814" enable-background="new 0 0 72.818 72.814" xml:space="preserve">
<g>
	<path fill="#1B1819" d="M64.069,48.844L44.776,22.553c-0.443-0.604-1.451-0.604-1.896,0L31.589,37.938l-6.471-8.818
		c-0.221-0.302-0.572-0.479-0.947-0.479c-0.373,0-0.725,0.178-0.946,0.479L8.751,48.844C8.49,49.2,8.45,49.675,8.65,50.069
		c0.198,0.396,0.604,0.645,1.049,0.645H63.12c0.44,0,0.848-0.249,1.047-0.645C64.369,49.676,64.33,49.201,64.069,48.844z
		 M12.018,48.364l12.153-16.562l6.472,8.817c0.223,0.303,0.571,0.479,0.946,0.479c0.373,0,0.728-0.178,0.947-0.479l11.291-15.385
		L60.8,48.365L12.018,48.364L12.018,48.364z"/>
	<path fill="#1B1819" d="M24.926,33.636c-0.166-0.23-0.432-0.367-0.715-0.367c-0.002,0-0.002,0-0.004,0
		c-0.285,0.001-0.553,0.14-0.715,0.373l-2.859,4.044c-0.145,0.206-0.194,0.464-0.139,0.708c0.057,0.245,0.217,0.454,0.438,0.574
		l1.285,0.698c0.131,0.071,0.277,0.106,0.422,0.106c0.168,0,0.339-0.049,0.484-0.146l1.229-0.812l1.155,0.8
		c0.277,0.192,0.64,0.208,0.931,0.044l1.149-0.643c0.22-0.123,0.375-0.333,0.431-0.578c0.057-0.246,0.002-0.502-0.146-0.707
		L24.926,33.636z"/>
	<path fill="#1B1819" d="M43.811,26.734c-0.285,0.001-0.552,0.141-0.715,0.373l-2.857,4.044c-0.146,0.206-0.195,0.464-0.139,0.709
		s0.217,0.454,0.438,0.574l1.285,0.698c0.131,0.07,0.275,0.105,0.42,0.105c0.17,0,0.338-0.048,0.484-0.146l1.229-0.811l1.156,0.8
		c0.274,0.19,0.639,0.208,0.932,0.044l1.148-0.644c0.219-0.122,0.377-0.333,0.43-0.578c0.056-0.245,0.002-0.502-0.145-0.706
		l-2.947-4.099c-0.166-0.23-0.435-0.367-0.717-0.367C43.815,26.734,43.813,26.734,43.811,26.734z"/>
</g>
</svg>
