<?xml version="1.0" encoding="utf-8"?>
<!-- Generator: Adobe Illustrator 16.0.0, SVG Export Plug-In . SVG Version: 6.00 Build 0)  -->
<!DOCTYPE svg PUBLIC "-//W3C//DTD SVG 1.1//EN" "http://www.w3.org/Graphics/SVG/1.1/DTD/svg11.dtd">
<svg version="1.1" id="Layer_1" xmlns="http://www.w3.org/2000/svg" xmlns:xlink="http://www.w3.org/1999/xlink" x="0px" y="0px"
	 width="100px" height="100px" viewBox="0 0 100 100" enable-background="new 0 0 100 100" xml:space="preserve">
<g>
	<path d="M64.975,45.663c0.099-0.099,0.229-0.147,0.357-0.145c0.145-0.013,0.29,0.028,0.398,0.138l3.801,3.8l3.589-3.589
		c0.021-0.019,0.044-0.028,0.063-0.043l-9.404-14.698l-6.106,14.417l3.711,3.71L64.975,45.663z M64.38,34.22
		c0.236-0.146,0.543-0.076,0.688,0.158l6.396,10.197c0.146,0.234,0.075,0.542-0.157,0.689c-0.084,0.052-0.177,0.076-0.268,0.076
		c-0.166,0-0.329-0.083-0.424-0.234l-6.395-10.197C64.075,34.675,64.146,34.367,64.38,34.22z"/>
	<path d="M73.729,46.671l-3.844,3.845c-0.099,0.098-0.227,0.146-0.354,0.146s-0.256-0.05-0.354-0.146l-3.821-3.823l-3.619,3.618
		c-0.098,0.099-0.225,0.146-0.354,0.146c-0.127,0-0.256-0.049-0.354-0.146l-3.777-3.776l-8.786,20.746
		c-0.08,0.191-0.267,0.305-0.46,0.305c-0.065,0-0.133-0.014-0.195-0.041c-0.254-0.107-0.373-0.4-0.265-0.654l6.411-15.137
		L49.85,44.44l-3.86,3.859c-0.01,0.01-0.022,0.013-0.033,0.022c-0.006,0.006-0.008,0.015-0.014,0.021
		c-0.098,0.098-0.226,0.146-0.354,0.146s-0.257-0.049-0.354-0.146l-3.8-3.8l-3.589,3.589c-0.099,0.098-0.227,0.146-0.354,0.146
		c-0.002,0-0.004-0.001-0.006-0.001c-0.016,0.001-0.03,0.009-0.046,0.009c-0.128,0-0.256-0.049-0.354-0.146l-3.801-3.8l-3.589,3.589
		c-0.01,0.01-0.023,0.014-0.035,0.023c-0.005,0.006-0.007,0.014-0.013,0.02c-0.098,0.098-0.226,0.146-0.354,0.146
		c-0.129,0-0.257-0.049-0.354-0.146l-3.802-3.802L6.383,77.75h87.234L73.729,46.671z"/>
	<path d="M32.936,43.279c0.195-0.195,0.512-0.195,0.707,0l3.822,3.822l3.619-3.619c0.194-0.195,0.512-0.195,0.706,0l3.803,3.802
		l3.635-3.634c0.039-0.039,0.085-0.064,0.131-0.087L37.39,22.25L25.65,43.263l3.651,3.651L32.936,43.279z M39.229,28.303
		c0.243-0.13,0.546-0.038,0.677,0.206l6.125,11.481c0.13,0.244,0.037,0.546-0.206,0.676c-0.074,0.04-0.154,0.059-0.234,0.059
		c-0.18,0-0.353-0.096-0.441-0.265l-6.125-11.481C38.894,28.736,38.986,28.433,39.229,28.303z"/>
</g>
</svg>
