<?xml version="1.0" encoding="iso-8859-1"?>
<!-- Generator: Adobe Illustrator 16.0.0, SVG Export Plug-In . SVG Version: 6.00 Build 0)  -->
<!DOCTYPE svg PUBLIC "-//W3C//DTD SVG 1.1//EN" "http://www.w3.org/Graphics/SVG/1.1/DTD/svg11.dtd">
<svg version="1.1" id="Layer_1" xmlns="http://www.w3.org/2000/svg" xmlns:xlink="http://www.w3.org/1999/xlink" x="0px" y="0px"
	 width="36px" height="36px" viewBox="0 0 36 36" style="enable-background:new 0 0 36 36;" xml:space="preserve">
<g>
	<path style="fill:#010101;" d="M26.852,12.136l-3.904,8.269l0.494,0.938l0.918-1.757c0,0,1.488-3.627,1.572-1.274
		c0.492,2.185,0.746-0.125,0.746-0.125c0.082-0.258,0.625-5.681,0.863,0.362c0.238,6.044,0.553,0.252,0.732,0.408
		c2.742,2.379,6.404,9.172,6.404,9.172h-7.656l0.285,0.542h8.27L26.852,12.136z"/>
	<path style="fill:#010101;" d="M22.656,22.13l-0.498-0.939L13.852,5.449l-11.34,24.01h15.742h8.266l-0.285-0.542L22.656,22.13z
		 M19.236,28.672h-0.611H3.754l6.479-12.403c0,0,2.164-5.268,2.285-1.852c0.713,3.172,1.084-0.182,1.084-0.182
		c0.119-0.374,0.904-8.25,1.252,0.526c0.348,8.776,0.803,0.365,1.064,0.591c1.809,1.569,3.891,4.457,5.625,7.145
		c0.17,0.266,0.342,0.532,0.506,0.792c1.834,2.906,3.168,5.383,3.168,5.383H19.236z"/>
</g>
</svg>
